<?xml version="1.0" encoding="UTF-8"?>
<svg width="24px" height="24px" viewBox="0 0 24 24" version="1.1" xmlns="http://www.w3.org/2000/svg" xmlns:xlink="http://www.w3.org/1999/xlink">
    <!-- Generator: Sketch 63 (92445) - https://sketch.com -->
    <title>icon_密码</title>
    <desc>Created with Sketch.</desc>
    <g id="登录\态势感知" stroke="none" stroke-width="1" fill="none" fill-rule="evenodd">
        <g id="登录" transform="translate(-1424.000000, -548.000000)">
            <g id="登录框" transform="translate(1380.000000, 306.000000)">
                <g id="密码" transform="translate(32.000000, 230.000000)">
                    <g id="icon/password" transform="translate(12.000000, 12.000000)">
                        <g id="icon_密码">
                            <rect id="矩形备份-2" fill-opacity="0.5" fill="#262F40" opacity="0.01" x="0" y="0" width="24" height="24"></rect>
                            <path d="M17,9 C18.1045695,9 19,9.8954305 19,11 L19,18 C19,19.1045695 18.1045695,20 17,20 L7,20 C5.8954305,20 5,19.1045695 5,18 L5,11 C5,9.8954305 5.8954305,9 7,9 L17,9 Z M12,12 C11.1715729,12 10.5,12.6395932 10.5,13.4285714 C10.5,13.957179 10.8014601,14.4187296 11.2495789,14.6657933 L11.2495789,14.6657933 L11.25,17 L12.75,17 L12.7514212,14.6652415 C13.1989883,14.4180427 13.5,13.9567857 13.5,13.4285714 C13.5,12.6395932 12.8284271,12 12,12 Z" id="形状结合" fill="#99A6BF"></path>
                            <path d="M12,4.5 C11.0335017,4.5 10.1585017,4.89175084 9.52512627,5.52512627 C8.89175084,6.15850169 8.5,7.03350169 8.5,8 L8.5,9.5 L15.5,9.5 L15.5,8 C15.5,7.03350169 15.1082492,6.15850169 14.4748737,5.52512627 C13.8414983,4.89175084 12.9664983,4.5 12,4.5 Z" id="矩形备份-3" stroke="#99A6BF"></path>
                        </g>
                    </g>
                </g>
            </g>
        </g>
    </g>
</svg>