<?xml version="1.0" encoding="UTF-8"?>
<svg width="16px" height="14px" viewBox="0 0 16 14" version="1.1" xmlns="http://www.w3.org/2000/svg" xmlns:xlink="http://www.w3.org/1999/xlink">
    <!-- Generator: Sketch 63 (92445) - https://sketch.com -->
    <title>icon-配置中心</title>
    <desc>Created with Sketch.</desc>
    <g id="监控中心" stroke="none" stroke-width="1" fill="none" fill-rule="evenodd">
        <g id="全局导航" transform="translate(-1342.000000, -109.000000)" fill-rule="nonzero">
            <g id="全局导航展开备份-2" transform="translate(200.000000, 52.000000)">
                <g id="配置中心" transform="translate(1142.000000, 56.000000)">
                    <g id="icon-配置中心" transform="translate(0.000000, 0.091954)">
                        <rect id="矩形" fill="#000000" opacity="0" x="0" y="0" width="16" height="15.816092"></rect>
                        <path d="M6,1.09723502 C6.43766477,1.09597552 6.85405967,1.28372688 7.14,1.61126437 L8.03,2.59977011 C8.12022843,2.71618471 8.26171787,2.78243566 8.41,2.77770115 L14.34,2.7183908 C15.1700603,2.71837281 15.8445029,3.38064805 15.85,4.20114943 L15.85,13.0977011 C15.8662037,13.4986515 15.7184122,13.8891646 15.4399633,14.1811511 C15.1615143,14.4731375 14.7758623,14.6420027 14.37,14.6496552 L1.63,14.6496552 C0.799939713,14.6496552 0.125497088,13.9873979 0.12,13.1668966 L0.12,2.58 C0.125497088,1.75949863 0.799939713,1.09723502 1.63,1.09723502 L6,1.09723502 Z M8.46,5.03149425 L7.36,5.03149425 C6.53157288,5.03149425 5.86,5.6953479 5.86,6.51425287 L5.86,6.51425287 L5.81,8.59011494 L4.47,8.59011494 C4.26451281,8.58707432 4.07807086,8.7086332 4,8.89655172 C3.93924736,9.06863272 3.97333189,9.25955833 4.09,9.40068966 L4.09,9.40068966 L7.09,12.3662069 C7.29178387,12.5572331 7.56060653,12.6635262 7.84,12.6627586 C8.09472201,12.6670976 8.34151555,12.5751719 8.53,12.4057471 L8.53,12.4057471 L11.87,9.44022989 C12.0202386,9.30147603 12.0714954,9.08711303 12,8.89655172 C11.9318064,8.69695381 11.7431175,8.56202441 11.53,8.56045977 L11.53,8.56045977 L10,8.56045977 L10,6.4845977 C9.99215016,6.0895661 9.82512964,5.71396861 9.53600292,5.44115625 C9.2468762,5.16834389 8.85955788,5.02088184 8.46,5.03149425 L8.46,5.03149425 Z M8.5,6.03977011 C8.77614237,6.03977011 9,6.26105466 9,6.53402299 L9,6.53402299 L9,8.51103448 C8.98629421,8.78165632 9.08556885,9.04597568 9.27461125,9.24218864 C9.46365364,9.43840161 9.72588874,9.54930444 10,9.54896552 L10,9.54896552 L10.22,9.54896552 L7.8,11.6643678 L5.66,9.54896552 L5.81,9.54896552 C6.09268055,9.56332419 6.36827534,9.45858985 6.5684244,9.26074136 C6.76857345,9.06289287 6.87452563,8.79046583 6.86,8.51103448 L6.86,8.51103448 L6.86,6.53402299 C6.86,6.26105466 7.08385763,6.03977011 7.36,6.03977011 L7.36,6.03977011 Z" id="形状结合" fill="#00B1FF"></path>
                    </g>
                </g>
            </g>
        </g>
    </g>
</svg>