<?xml version="1.0" encoding="UTF-8"?>
<svg width="14px" height="14px" viewBox="0 0 14 14" version="1.1" xmlns="http://www.w3.org/2000/svg" xmlns:xlink="http://www.w3.org/1999/xlink">
    <!-- Generator: Sketch 63 (92445) - https://sketch.com -->
    <title>icon-资产中心</title>
    <desc>Created with Sketch.</desc>
    <g id="监控中心" stroke="none" stroke-width="1" fill="none" fill-rule="evenodd">
        <g id="全局导航" transform="translate(-1087.000000, -109.000000)">
            <g id="全局导航展开备份-2" transform="translate(200.000000, 52.000000)">
                <g id="资产中心" transform="translate(886.000000, 56.000000)">
                    <g id="icon-资产中心" transform="translate(0.000000, 0.090395)">
                        <rect id="矩形" fill="#000000" fill-rule="nonzero" opacity="0" x="0" y="0" width="16" height="15.819209"></rect>
                        <path d="M8,0.988700565 C11.8659932,0.988700565 15,4.08729481 15,7.90960452 C15,8.35039632 14.9583212,8.78156351 14.8786474,9.19946389 C14.7387593,9.12509084 14.5802827,9.08368644 14.4125,9.08368644 L14.4125,9.08368644 L8.08407813,9.08294334 L6.75,8.02083333 C6.65,7.93432203 6.4875,7.95903955 6.4,8.0579096 L6.4,8.0579096 L6.0875,8.44103107 C6,8.53990113 6.0125,8.70056497 6.125,8.78707627 L6.125,8.78707627 L7.5625,9.93644068 C7.67242188,10.0244196 7.80645459,10.0690559 7.94073389,10.0712572 L7.94073389,10.0712572 L7.975,10.072387 L14.6513298,10.0726546 C13.7326805,12.8356275 11.1019674,14.8305085 8,14.8305085 C4.13400675,14.8305085 1,11.7319142 1,7.90960452 C1,7.40124302 1.0554362,6.90568303 1.16065772,6.4285116 C1.33267203,6.56662644 1.55082753,6.6490113 1.7875,6.6490113 L1.7875,6.6490113 L8.0505,6.64831073 L9.3875,7.71186441 C9.5,7.79837571 9.65,7.78601695 9.7375,7.67478814 L9.7375,7.67478814 L10.05,7.29166667 C10.1375,7.19279661 10.125,7.03213277 10.0125,6.94562147 L10.0125,6.94562147 L8.63074673,5.8390157 C8.51828424,5.72808145 8.3622392,5.66031073 8.1875,5.66031073 L8.1875,5.66031073 L1.37801377,5.66023303 C2.32232429,2.94212778 4.93043133,0.988700565 8,0.988700565 Z" id="形状结合" fill="#00B1FF"></path>
                    </g>
                </g>
            </g>
        </g>
    </g>
</svg>