<?xml version="1.0" encoding="UTF-8"?>
<svg width="14px" height="12px" viewBox="0 0 14 12" version="1.1" xmlns="http://www.w3.org/2000/svg" xmlns:xlink="http://www.w3.org/1999/xlink">
    <!-- Generator: Sketch 63 (92445) - https://sketch.com -->
    <title>icon-监控中心</title>
    <desc>Created with Sketch.</desc>
    <g id="监控中心" stroke="none" stroke-width="1" fill="none" fill-rule="evenodd">
        <g id="全局导航" transform="translate(-319.000000, -111.000000)" fill-rule="nonzero">
            <g id="全局导航展开备份-2" transform="translate(200.000000, 52.000000)">
                <g id="监控中心" transform="translate(118.000000, 56.000000)">
                    <g id="icon-监控中心" transform="translate(0.000000, 1.000000)">
                        <rect id="矩形" fill="#000000" opacity="0" x="0" y="0" width="16" height="15.8632479"></rect>
                        <path d="M12.0782222,12.9373599 L12.0782222,13.7481482 L3.92177778,13.7481482 L3.92177778,12.9373599 L12.0782222,12.9373599 Z M14.9333333,2.11509971 L14.9333333,11.9855651 L8.40866667,11.9850997 L8.40888889,11.5220057 L7.59111111,11.5220057 L7.59066667,11.9850997 L1.06666667,11.9855651 L1.06666667,2.11509971 L14.9333333,2.11509971 Z M8,4.23019944 C5.34933333,4.23019944 3.2,7.05033238 3.2,7.05033238 C3.2,7.05033238 5.34933333,9.87046534 8,9.87046534 C10.6506667,9.87046534 12.8,7.0503324 12.8,7.05033238 C12.8,7.05033237 10.6506667,4.23019944 8,4.23019944 Z M8,5.04098765 C9.58755556,5.04098765 11.0222222,6.32238555 11.7191111,7.05033238 C11.0222222,7.7782792 9.58577778,9.05967712 8,9.05967712 C6.41422222,9.05967712 4.97777778,7.7782792 4.28088889,7.05033238 C4.97777778,6.32238557 6.41422222,5.04098765 8,5.04098765 Z M8,5.64026591 C7.21452836,5.64026591 6.57777778,6.27157417 6.57777778,7.05033238 C6.57777778,7.82909059 7.21452836,8.46039886 8,8.46039886 C8.78547164,8.46039886 9.42222222,7.82909059 9.42222222,7.05033238 C9.42222222,6.27157417 8.78547164,5.64026591 8,5.64026591 Z M8,6.45105414 C8.33382544,6.45105414 8.60444444,6.71936015 8.60444444,7.05033238 C8.60444444,7.38130462 8.33382544,7.64961063 8,7.64961063 C7.66617456,7.64961063 7.39555556,7.38130462 7.39555556,7.05033238 C7.39653191,6.71976194 7.66657981,6.45202214 8,6.45105414 Z" id="形状结合" fill="#00B1FF"></path>
                    </g>
                </g>
            </g>
        </g>
    </g>
</svg>