<?xml version="1.0" encoding="UTF-8"?>
<svg width="168px" height="32px" viewBox="0 0 168 32" version="1.1" xmlns="http://www.w3.org/2000/svg" xmlns:xlink="http://www.w3.org/1999/xlink">
    <!-- Generator: Sketch 63 (92445) - https://sketch.com -->
    <title>Logo</title>
    <desc>Created with Sketch.</desc>
    <defs>
        <polygon id="path-1" points="5e-05 0.0465 24.689 0.0465 24.689 30.9997 5e-05 30.9997"></polygon>
    </defs>
    <g id="控件" stroke="none" stroke-width="1" fill="none" fill-rule="evenodd">
        <g id="Top-Logo" transform="translate(-16.000000, -10.000000)">
            <g id="Logo-SOC">
                <g id="Logo" transform="translate(16.000000, 10.000000)">
                    <path d="M36.08,12.634 L36.08,10.148 L49.17,10.148 L49.17,12.634 L51.964,12.634 L51.964,7.728 L44.198,7.728 C43.868,6.98 43.406,6.034 42.988,5.286 L40.238,5.924 C40.502,6.474 40.81,7.112 41.074,7.728 L33.418,7.728 L33.418,12.634 L36.08,12.634 Z M50.138,25.966 L52.272,23.744 C50.644,22.754 48.334,21.654 45.826,20.598 C46.904,19.432 47.806,18.002 48.466,16.33 L52.382,16.33 L52.382,13.866 L42.152,13.866 C42.614,12.964 43.032,12.084 43.384,11.204 L40.458,10.632 C40.062,11.644 39.534,12.766 38.962,13.866 L33,13.866 L33,16.33 L37.554,16.33 C36.872,17.43 36.168,18.464 35.508,19.322 L35.464,19.366 C37.114,19.894 38.918,20.576 40.7,21.302 C38.654,22.38 36.102,23.062 33.066,23.48 C33.572,24.052 34.342,25.262 34.628,25.9 C38.192,25.218 41.206,24.184 43.604,22.534 C46.2,23.7 48.576,24.932 50.138,25.966 Z M43.208,19.542 C41.976,19.08 40.788,18.64 39.6,18.222 C39.996,17.65 40.392,17.012 40.81,16.33 L45.43,16.33 C44.88,17.584 44.132,18.64 43.208,19.542 Z M75.074,25.394 L75.074,23.04 L67.022,23.04 L67.022,20.4 L72.258,20.4 L72.258,18.112 L67.022,18.112 L67.022,15.582 L72.434,15.582 L72.434,14.174 C73.094,14.548 73.82,14.944 74.546,15.34 C74.876,14.57 75.646,13.69 76.306,13.096 C72.786,11.556 69.75,9.62 67.132,6.826 C67.264,6.628 67.396,6.43 67.528,6.232 L65.196,5.154 C62.996,8.564 58.992,11.424 55.054,13.052 C55.714,13.668 56.484,14.548 56.836,15.23 C57.562,14.878 58.266,14.504 58.948,14.108 L58.948,15.582 L64.272,15.582 L64.272,18.112 L59.256,18.112 L59.256,20.4 L64.272,20.4 L64.272,23.04 L56.374,23.04 L56.374,25.394 L75.074,25.394 Z M71.026,13.272 L60.29,13.272 C62.226,11.996 64.052,10.434 65.636,8.696 C67.33,10.522 69.09,11.996 71.026,13.272 Z M82.696,10.896 L84.544,9.026 C83.642,8.256 81.816,7.002 80.628,6.166 L78.912,7.816 C80.122,8.762 81.882,10.104 82.696,10.896 Z M97.26,8.894 L97.26,6.474 L86.04,6.474 L86.04,8.894 L97.26,8.894 Z M96.16,21.896 L98.514,20.686 C97.7,19.036 95.984,16.286 94.774,14.262 L92.596,15.252 C93.102,16.11 93.63,17.078 94.18,18.046 L88.878,18.464 C89.846,17.056 90.858,15.384 91.606,13.756 L98.69,13.756 L98.69,11.314 L84.566,11.314 L84.566,13.756 L88.438,13.756 C87.712,15.582 86.766,17.232 86.392,17.738 C85.952,18.354 85.578,18.75 85.116,18.882 C85.446,19.608 85.908,20.906 86.04,21.478 C86.04,21.412 86.062,21.368 86.106,21.302 L86.106,21.478 L86.1969364,21.4410915 C87.0300842,21.1158418 88.3264286,20.9688571 95.412,20.29 C95.698,20.884 95.962,21.434 96.16,21.896 Z M80.034,26.142 C80.958,24.822 82.014,23.458 82.696,23.458 C83.158,23.458 83.906,24.118 84.786,24.602 C86.348,25.482 88.108,25.746 90.858,25.746 C93.256,25.746 96.732,25.614 98.382,25.526 C98.404,24.756 98.866,23.392 99.174,22.644 C96.886,22.974 93.19,23.172 90.968,23.172 C88.57,23.172 86.612,23.062 85.138,22.182 C84.544,21.83 84.082,21.5 83.708,21.28 L83.708,12.832 L78.45,12.832 L78.45,15.252 L81.134,15.252 L81.134,21.412 C80.188,21.874 79.176,22.644 78.23,23.59 L80.034,26.142 Z M108.842,10.28 L108.842,9.224 L114.364,9.224 L114.364,10.28 L116.982,10.28 L116.982,9.224 L121.426,9.224 L121.426,6.892 L116.982,6.892 L116.982,5.374 L114.364,5.374 L114.364,6.892 L108.842,6.892 L108.842,5.374 L106.268,5.374 L106.268,6.892 L101.934,6.892 L101.934,9.224 L106.268,9.224 L106.268,10.28 L108.842,10.28 Z M104.816,15.252 L104.816,12.7 L118.566,12.7 L118.566,15.252 L121.096,15.252 L121.096,10.72 L102.418,10.72 L102.418,15.252 L104.816,15.252 Z M117.51,18.332 L117.51,13.558 L105.96,13.558 L105.96,18.332 L117.51,18.332 Z M114.914,16.616 L108.402,16.616 L108.402,15.296 L114.914,15.296 L114.914,16.616 Z M106.62,25.944 L106.62,25.328 L116.85,25.328 L116.85,25.944 L119.468,25.944 L119.468,19.124 L104.112,19.124 L104.112,25.944 L106.62,25.944 Z M116.85,23.194 L106.62,23.194 L106.62,21.39 L116.85,21.39 L116.85,23.194 Z M136.022,25.9 L136.022,18.64 L144.668,18.64 L144.668,15.978 L136.022,15.978 L136.022,9.312 L143.392,9.312 L143.392,6.716 L125.88,6.716 L125.88,9.312 L133.294,9.312 L133.294,15.978 L124.736,15.978 L124.736,18.64 L133.294,18.64 L133.294,25.9 L136.022,25.9 Z M140.07,15.252 C140.796,14.13 141.698,12.348 142.49,10.654 L139.696,9.95 C139.278,11.38 138.486,13.316 137.782,14.592 L140.07,15.252 Z M128.828,15.296 L131.38,14.504 C131.138,13.272 130.346,11.424 129.62,10.016 L127.222,10.72 C127.926,12.194 128.608,14.13 128.828,15.296 Z M165.072,15.428 L167.294,13.822 C166.15,11.974 163.532,9.268 161.508,7.376 L159.462,8.74 C160.276,9.554 161.156,10.478 162.014,11.446 L152.994,11.732 C154.666,10.126 156.404,8.168 157.79,6.122 L155.15,5 C153.654,7.64 151.256,10.302 150.486,10.984 C149.76,11.688 149.232,12.106 148.66,12.26 C148.968,12.942 149.386,14.24 149.518,14.768 C150.684,14.372 152.246,14.328 163.928,13.756 C164.39,14.372 164.786,14.944 165.072,15.428 Z M152.928,25.878 L152.928,24.756 L162.256,24.756 L162.256,25.856 L165.072,25.856 L165.072,16.22 L150.244,16.22 L150.244,25.878 L152.928,25.878 Z M162.256,22.248 L152.928,22.248 L152.928,18.728 L162.256,18.728 L162.256,22.248 Z" id="安全运营平台" fill-opacity="0.9" fill="#FFFFFF" fill-rule="nonzero"></path>
                    <g id="logo">
                        <path d="M12.34455,17.87825 C13.40105,17.87825 14.26105,17.01825 14.26105,15.96175 C14.26105,14.90475 13.40105,14.04475 12.34455,14.04475 C11.28805,14.04475 10.42805,14.90475 10.42805,15.96175 C10.42805,17.01825 11.28805,17.87825 12.34455,17.87825" id="Fill-1" fill="#00B1FF"></path>
                        <g id="编组" transform="translate(0.000000, 0.453550)">
                            <mask id="mask-2" fill="white">
                                <use xlink:href="#path-1"></use>
                            </mask>
                            <g id="Clip-4"></g>
                            <path d="M12.34455,23.1542 C10.57405,23.1542 8.94905,22.5457 7.65455,21.5342 C7.90455,21.3102 8.11455,21.0442 8.27155,20.7447 C9.39655,21.6242 10.80855,22.1542 12.34455,22.1542 C13.88055,22.1542 15.29255,21.6242 16.41755,20.7447 C16.57455,21.0442 16.78455,21.3102 17.03455,21.5342 C15.74005,22.5457 14.11505,23.1542 12.34455,23.1542 M6.89655,20.8612 C6.59105,21.1012 6.21055,21.2497 5.79255,21.2497 C4.79955,21.2497 3.99455,20.4452 3.99455,19.4522 C3.99455,18.7192 4.43455,18.0907 5.06355,17.8107 C5.28705,17.7117 5.53255,17.6542 5.79255,17.6542 C5.89155,17.6542 5.98755,17.6677 6.08255,17.6837 C6.93655,17.8232 7.59005,18.5587 7.59005,19.4522 C7.59005,19.6532 7.54955,19.8432 7.48855,20.0232 C7.37555,20.3587 7.16905,20.6472 6.89655,20.8612 M9.59655,8.4107 C9.66005,8.7472 9.78505,9.0607 9.95755,9.3437 C7.47905,10.3052 5.71405,12.7087 5.71405,15.5232 C5.71405,15.9102 5.75405,16.2867 5.81805,16.6557 C5.80955,16.6557 5.80105,16.6542 5.79255,16.6542 C5.45505,16.6542 5.13305,16.7172 4.83355,16.8272 C4.76005,16.4027 4.71405,15.9687 4.71405,15.5232 C4.71405,12.2787 6.74205,9.5142 9.59655,8.4107 M12.34455,12.5912 C13.95505,12.5912 15.26105,13.8972 15.26105,15.5082 C15.26105,17.1192 13.95505,18.4247 12.34455,18.4247 C10.73405,18.4247 9.42805,17.1192 9.42805,15.5082 C9.42805,13.8972 10.73405,12.5912 12.34455,12.5912 M10.56855,8.1082 C10.56005,8.0367 10.54655,7.9662 10.54655,7.8922 C10.54655,6.8987 11.35155,6.0942 12.34455,6.0942 C13.33755,6.0942 14.14255,6.8987 14.14255,7.8922 C14.14255,7.9662 14.12905,8.0367 14.12055,8.1082 C14.07755,8.4602 13.93555,8.7782 13.71955,9.0377 C13.39005,9.4332 12.89955,9.6897 12.34455,9.6897 C11.78955,9.6897 11.29905,9.4332 10.96955,9.0377 C10.75355,8.7782 10.61155,8.4602 10.56855,8.1082 M19.97505,15.5232 C19.97505,15.9687 19.92905,16.4027 19.85555,16.8272 C19.55605,16.7172 19.23405,16.6542 18.89655,16.6542 C18.88805,16.6542 18.87955,16.6557 18.87105,16.6557 C18.93505,16.2867 18.97505,15.9102 18.97505,15.5232 C18.97505,12.7087 17.21005,10.3052 14.73155,9.3437 C14.90405,9.0607 15.02905,8.7472 15.09205,8.4107 C17.94705,9.5142 19.97505,12.2787 19.97505,15.5232 M18.89655,21.2497 C18.47855,21.2497 18.09805,21.1012 17.79255,20.8612 C17.52005,20.6472 17.31355,20.3587 17.20005,20.0232 C17.13955,19.8432 17.09905,19.6532 17.09905,19.4522 C17.09905,18.5587 17.75255,17.8232 18.60655,17.6837 C18.70155,17.6677 18.79755,17.6542 18.89655,17.6542 C19.15655,17.6542 19.40205,17.7117 19.62505,17.8107 C20.25455,18.0907 20.69455,18.7192 20.69455,19.4522 C20.69455,20.4452 19.88955,21.2497 18.89655,21.2497 M18.27255,2.9522 C16.15105,2.2917 14.29705,1.4322 12.34455,0.0462 C10.39205,1.4322 8.53805,2.2917 6.41655,2.9522 C4.58505,3.5217 2.66955,3.8152 5e-05,3.7762 L5e-05,17.6542 C5e-05,22.6567 2.95755,26.8267 6.97605,28.7742 L12.34455,30.9997 L17.71305,28.7742 C21.73155,26.8267 24.68905,22.6567 24.68905,17.6542 L24.68905,3.7762 C22.01955,3.8152 20.10405,3.5217 18.27255,2.9522" id="Fill-3" fill="#00B1FF" mask="url(#mask-2)"></path>
                        </g>
                        <path d="M13.138,8.38705 C13.1385,8.37305 13.1425,8.35955 13.1425,8.34555 C13.1425,7.90555 12.7845,7.54755 12.3445,7.54755 C11.9045,7.54755 11.5465,7.90555 11.5465,8.34555 C11.5465,8.35955 11.55,8.37305 11.551,8.38705 C11.573,8.80755 11.919,9.14355 12.3445,9.14355 C12.7705,9.14355 13.116,8.80755 13.138,8.38705" id="Fill-5" fill="#00B1FF"></path>
                        <path d="M5.7923,19.10775 C5.6628,19.10775 5.5423,19.14175 5.4338,19.19675 C5.1743,19.32825 4.9943,19.59525 4.9943,19.90575 C4.9943,20.34575 5.3523,20.70325 5.7923,20.70325 C5.9633,20.70325 6.1213,20.64825 6.2513,20.55625 C6.4553,20.41125 6.5903,20.17475 6.5903,19.90575 C6.5903,19.46575 6.2323,19.10775 5.7923,19.10775" id="Fill-7" fill="#00B1FF"></path>
                        <path d="M19.2552,19.1966 C19.1467,19.1421 19.0262,19.1076 18.8967,19.1076 C18.4567,19.1076 18.0987,19.4656 18.0987,19.9056 C18.0987,20.1746 18.2337,20.4116 18.4377,20.5566 C18.5677,20.6481 18.7257,20.7036 18.8967,20.7036 C19.3367,20.7036 19.6947,20.3456 19.6947,19.9056 C19.6947,19.5951 19.5147,19.3286 19.2552,19.1966" id="Fill-9" fill="#00B1FF"></path>
                        <path d="M5.7923,17.10775 C5.8013,17.10775 5.8093,17.10925 5.8178,17.10925 C5.7543,16.74025 5.7143,16.36375 5.7143,15.97675 C5.7143,13.16225 7.4793,10.75875 9.9573,9.79725 C9.7848,9.51425 9.6603,9.20075 9.5968,8.86425 C6.7423,9.96775 4.7143,12.73225 4.7143,15.97675 C4.7143,16.42225 4.7603,16.85625 4.8333,17.28075 C5.1333,17.17075 5.4553,17.10775 5.7923,17.10775" id="Fill-11" fill="#FFFFFF"></path>
                        <path d="M12.34455,22.60775 C10.80855,22.60775 9.39655,22.07775 8.27155,21.19825 C8.11455,21.49775 7.90455,21.76425 7.65455,21.98775 C8.94905,22.99925 10.57405,23.60775 12.34455,23.60775 C14.11505,23.60775 15.74005,22.99925 17.03455,21.98775 C16.78455,21.76425 16.57455,21.49775 16.41755,21.19825 C15.29255,22.07775 13.88055,22.60775 12.34455,22.60775" id="Fill-13" fill="#FFFFFF"></path>
                        <path d="M18.97495,15.9769 C18.97495,16.3634 18.93495,16.7399 18.87095,17.1094 C18.87995,17.1094 18.88795,17.1079 18.89695,17.1079 C19.23395,17.1079 19.55595,17.1709 19.85595,17.2804 C19.92895,16.8564 19.97495,16.4224 19.97495,15.9769 C19.97495,12.7324 17.94695,9.9674 15.09195,8.8639 C15.02895,9.2004 14.90395,9.5144 14.73145,9.7974 C17.20995,10.7584 18.97495,13.1624 18.97495,15.9769" id="Fill-15" fill="#FFFFFF"></path>
                        <path d="M10.96955,9.49105 C11.29905,9.88655 11.78955,10.14355 12.34455,10.14355 C12.89955,10.14355 13.39005,9.88655 13.71955,9.49105 C13.93555,9.23155 14.07755,8.91405 14.12055,8.56205 C14.12905,8.49005 14.14255,8.41955 14.14255,8.34555 C14.14255,7.35255 13.33755,6.54755 12.34455,6.54755 C11.35155,6.54755 10.54655,7.35255 10.54655,8.34555 C10.54655,8.41955 10.56005,8.49005 10.56855,8.56205 C10.61155,8.91405 10.75355,9.23155 10.96955,9.49105" id="Fill-17" fill="#FFFFFF"></path>
                        <path d="M6.0826,18.13705 C5.9876,18.12155 5.8916,18.10755 5.7921,18.10755 C5.5326,18.10755 5.2871,18.16555 5.0636,18.26455 C4.4346,18.54405 3.9946,19.17255 3.9946,19.90555 C3.9946,20.89855 4.7996,21.70355 5.7921,21.70355 C6.2106,21.70355 6.5911,21.55455 6.8961,21.31455 C7.1691,21.10105 7.3756,20.81255 7.4886,20.47705 C7.5496,20.29655 7.5901,20.10655 7.5901,19.90555 C7.5901,19.01205 6.9366,18.27655 6.0826,18.13705" id="Fill-19" fill="#FFFFFF"></path>
                        <path d="M19.6251,18.2645 C19.4021,18.1655 19.1566,18.108 18.8966,18.108 C18.7976,18.108 18.7016,18.1215 18.6066,18.137 C17.7526,18.2765 17.0991,19.012 17.0991,19.9055 C17.0991,20.107 17.1396,20.2965 17.2001,20.477 C17.3131,20.8125 17.5201,21.101 17.7926,21.315 C18.0981,21.5545 18.4786,21.7035 18.8966,21.7035 C19.8896,21.7035 20.6946,20.899 20.6946,19.9055 C20.6946,19.1725 20.2546,18.5445 19.6251,18.2645" id="Fill-21" fill="#FFFFFF"></path>
                        <path d="M12.34455,14.04475 C13.40105,14.04475 14.26105,14.90475 14.26105,15.96175 C14.26105,17.01825 13.40105,17.87825 12.34455,17.87825 C11.28805,17.87825 10.42805,17.01825 10.42805,15.96175 C10.42805,14.90475 11.28805,14.04475 12.34455,14.04475 M12.34455,18.87825 C13.95505,18.87825 15.26105,17.57275 15.26105,15.96175 C15.26105,14.35075 13.95505,13.04475 12.34455,13.04475 C10.73405,13.04475 9.42805,14.35075 9.42805,15.96175 C9.42805,17.57275 10.73405,18.87825 12.34455,18.87825" id="Fill-23" fill="#FFFFFF"></path>
                    </g>
                </g>
            </g>
        </g>
    </g>
</svg>