<?xml version="1.0" encoding="UTF-8"?>
<svg width="16px" height="12px" viewBox="0 0 16 12" version="1.1" xmlns="http://www.w3.org/2000/svg" xmlns:xlink="http://www.w3.org/1999/xlink">
    <!-- Generator: Sketch 63 (92445) - https://sketch.com -->
    <title>轮播</title>
    <desc>Created with Sketch.</desc>
    <g id="监控中心" stroke="none" stroke-width="1" fill="none" fill-rule="evenodd">
        <g transform="translate(-48.000000, -94.000000)" fill-rule="nonzero" id="编组-3">
            <g transform="translate(0.000000, 52.000000)">
                <g id="轮播" transform="translate(48.000000, 40.000000)">
                    <rect id="矩形" fill="#00CCCC" opacity="0" x="0" y="0" width="16" height="16"></rect>
                    <path d="M15.4285714,13.1428571 L0.571428578,13.1428571 C0.495652437,13.1428571 0.422979887,13.1127552 0.369398062,13.0591734 C0.315816237,13.0055915 0.285714281,12.932919 0.285714281,12.8571429 L0.285714281,3.14285714 C0.285714281,3.067081 0.315816237,2.99440845 0.369398062,2.94082663 C0.422979887,2.88724481 0.495652437,2.85714286 0.571428578,2.85714286 L15.4285714,2.85714286 C15.5043476,2.85714286 15.5770201,2.88724481 15.6306019,2.94082663 C15.6841838,2.99440845 15.7142857,3.067081 15.7142857,3.14285714 L15.7142857,12.8571429 C15.7142857,12.932919 15.6841838,13.0055915 15.6306019,13.0591734 C15.5770201,13.1127552 15.5043476,13.1428571 15.4285714,13.1428571 L15.4285714,13.1428571 Z M0.857142859,12.5714286 L15.1428571,12.5714286 L15.1428571,3.42857142 L0.857142859,3.42857142 L0.857142859,12.5714286 Z M10.2857143,12 C9.93903236,12 9.62648697,11.7911638 9.49381754,11.4708715 C9.36114811,11.1505792 9.43448161,10.7819068 9.67962275,10.5367656 C9.92476389,10.2916245 10.2934363,10.218291 10.6137287,10.3509604 C10.934021,10.4836298 11.1428571,10.7961752 11.1428571,11.1428571 C11.1428571,11.6162441 10.7591012,12 10.2857143,12 L10.2857143,12 Z M10.2857143,10.8571429 C10.1279186,10.8571429 10,10.9850615 10,11.1428572 C10,11.3006528 10.1279187,11.4285714 10.2857143,11.4285714 C10.4435099,11.4285714 10.5714286,11.3006528 10.5714286,11.1428571 C10.5714286,11.067081 10.5413266,10.9944085 10.4877448,10.9408266 C10.434163,10.8872448 10.3614904,10.8571429 10.2857143,10.8571429 L10.2857143,10.8571429 Z M5.71428572,12 C5.36760379,12 5.0550584,11.7911638 4.92238897,11.4708715 C4.78971955,11.1505792 4.86305305,10.7819068 5.10819419,10.5367656 C5.35333533,10.2916245 5.72200776,10.218291 6.04230009,10.3509604 C6.36259243,10.4836298 6.57142858,10.7961752 6.57142858,11.1428571 C6.57142858,11.6162441 6.18767265,12 5.71428572,12 L5.71428572,12 Z M5.71428572,10.8571429 C5.55649008,10.8571429 5.42857144,10.9850615 5.42857144,11.1428571 C5.42857144,11.3006528 5.55649008,11.4285714 5.71428572,11.4285714 C5.87208136,11.4285714 6,11.3006528 6,11.1428571 C6,10.9850615 5.87208136,10.8571429 5.71428572,10.8571429 L5.71428572,10.8571429 Z M7.14285714,11.1428571 C7.14285714,11.4490848 7.30622763,11.7320508 7.57142856,11.8851647 C7.83662949,12.0382785 8.16337051,12.0382785 8.42857144,11.8851647 C8.69377237,11.7320508 8.85714286,11.4490848 8.85714286,11.1428571 C8.85714286,10.6694702 8.47338693,10.2857143 8,10.2857143 C7.52661307,10.2857143 7.14285714,10.6694702 7.14285714,11.1428571 L7.14285714,11.1428571 Z" id="形状" fill="#FFFFFF"></path>
                </g>
            </g>
        </g>
    </g>
</svg>